# xmcd
#
# Track frame offsets: 
#        150
#        16830
#        36345
#        56014
#        70888
#        92092
#        112448
#        124070
#        141029
#        151549
#        166010
#        182545
#
# Disc length: 2643 seconds
#
# Revision: 0
# Processed by: cddbd v1.5.2PL0 Copyright (c) Steve Scherf et al.
# Submitted via: ExactAudioCopy v1.1
#
DISCID=990a510c
DTITLE=The Manhattans - There's No Me Without You
DYEAR=1973
DGENRE=Soul
TTITLE0=There's No Me Without You
TTITLE1=We Made It
TTITLE2=Wish That You Were Mine
TTITLE3=I'm Not a Run Around
TTITLE4=Soul Train
TTITLE5=You'd Better Believe It
TTITLE6=It's so Hard Loving You
TTITLE7=The Day the Robin Sang to Me
TTITLE8=Falling Apart at the Seams
TTITLE9=The Other Side of Me
TTITLE10=You'd Better Believe It [Single Version]
TTITLE11=Wish That You Were Mine [Single Version]
EXTD=
EXTT0=
EXTT1=
EXTT2=
EXTT3=
EXTT4=
EXTT5=
EXTT6=
EXTT7=
EXTT8=
EXTT9=
EXTT10=
EXTT11=
PLAYORDER=
